<svg xmlns="http://www.w3.org/2000/svg" viewBox="0 0 220.9 220.9"><title>temassizUretim</title><circle cx="110.45" cy="110.45" r="90.55" fill="none" stroke="#894e3f" stroke-miterlimit="10" stroke-width="39.8"/><path d="M98.53,214.78a3.21,3.21,0,0,0-.29,1.23,2.35,2.35,0,0,0,.17,1,2.15,2.15,0,0,0,.53.74,3,3,0,0,0,.8.49,2.52,2.52,0,0,0,.93.21,2.25,2.25,0,0,0,.92-.18,2.47,2.47,0,0,0,.82-.58,3.17,3.17,0,0,0,.63-1l3.27-7.78a.49.49,0,0,1,.23-.24.45.45,0,0,1,.36,0l2.68,1.13a.48.48,0,0,1,.28.26.47.47,0,0,1,0,.33l-3.25,7.73a7.45,7.45,0,0,1-1.61,2.5,5,5,0,0,1-2,1.22,5.28,5.28,0,0,1-2.25.18,9,9,0,0,1-2.32-.64,8.52,8.52,0,0,1-2.09-1.23,5.24,5.24,0,0,1-1.44-1.75,5,5,0,0,1-.53-2.29,7.14,7.14,0,0,1,.65-2.87l3.25-7.73a.51.51,0,0,1,.22-.24.37.37,0,0,1,.31,0l2.75,1.15a.55.55,0,0,1,.24.24.37.37,0,0,1,0,.35Zm3.89-12.31a.36.36,0,0,1,.54-.23l1.8.76a.39.39,0,0,1,.21.21.32.32,0,0,1,0,.33l-.72,1.74a.6.6,0,0,1-.24.26.39.39,0,0,1-.33,0l-1.8-.76c-.25-.11-.32-.31-.19-.61Zm4,1.68a.37.37,0,0,1,.56-.22l1.77.75a.36.36,0,0,1,.22.54l-.72,1.74a.58.58,0,0,1-.23.26.36.36,0,0,1-.35,0l-1.77-.75c-.27-.11-.34-.32-.21-.62Z" transform="translate(-14.55 -16.1)" fill="#eee1ba"/><path d="M111.42,210.65a.48.48,0,0,1,.15-.31.44.44,0,0,1,.35-.08l6.35,1a4.78,4.78,0,0,1,1.84.67,5.08,5.08,0,0,1,1.39,1.26,4.92,4.92,0,0,1,.8,1.68,4.59,4.59,0,0,1,.09,1.92A4.25,4.25,0,0,1,122,218a5,5,0,0,1-.68,1.06,5.06,5.06,0,0,1-2,1.41l1.79,5.15c0,.1.08.22.13.35a.78.78,0,0,1,.06.34.31.31,0,0,1-.14.23.46.46,0,0,1-.29,0l-3.38-.52a.47.47,0,0,1-.28-.14.42.42,0,0,1-.13-.3l-1.7-4.86-1.6-.24-.68,4.43c0,.29-.21.4-.52.36l-2.92-.45a.48.48,0,0,1-.3-.15.46.46,0,0,1-.07-.34Zm7,5.55a1.57,1.57,0,0,0,0-.61,1.81,1.81,0,0,0-.63-1.07,1.71,1.71,0,0,0-.58-.31l-.51-.11-.52-.1-1.36-.21-.56,3.61,1.81.28.32,0h.31a1.56,1.56,0,0,0,.65-.1,1.65,1.65,0,0,0,.52-.33,1.8,1.8,0,0,0,.37-.5A1.83,1.83,0,0,0,118.44,216.2Z" transform="translate(-14.55 -16.1)" fill="#eee1ba"/><path d="M124.18,212.35a.53.53,0,0,1,.1-.34.42.42,0,0,1,.32-.14l9.86-.46a.41.41,0,0,1,.34.11.48.48,0,0,1,.14.34l.11,2.46a.47.47,0,0,1-.1.33.43.43,0,0,1-.34.17l-6.44.3.12,2.47,5-.24a.53.53,0,0,1,.32.08.33.33,0,0,1,.14.29l.1,2.15a.38.38,0,0,1-.1.27.36.36,0,0,1-.31.14l-5,.24.12,2.54,6.68-.31a.39.39,0,0,1,.47.43l.12,2.5a.24.24,0,0,1-.07.18c0,.19-.15.29-.4.3l-10,.47a.42.42,0,0,1-.32-.09.38.38,0,0,1-.13-.32Z" transform="translate(-14.55 -16.1)" fill="#eee1ba"/><path d="M135.77,211.72a.4.4,0,0,1,0-.34.52.52,0,0,1,.3-.19l10.42-2.47a.47.47,0,0,1,.33,0,.43.43,0,0,1,.23.29l.57,2.4a.51.51,0,0,1,0,.36.39.39,0,0,1-.3.24l-3.34.79,2.51,10.61a.46.46,0,0,1-.05.34.43.43,0,0,1-.3.22l-2.84.67a.43.43,0,0,1-.34-.06.41.41,0,0,1-.22-.29l-2.51-10.6-3.33.79a.45.45,0,0,1-.36,0,.47.47,0,0,1-.21-.33Z" transform="translate(-14.55 -16.1)" fill="#eee1ba"/><path d="M147,204a.45.45,0,0,1,0-.34.4.4,0,0,1,.26-.23l2.45-1a.47.47,0,0,1,.33,0,.38.38,0,0,1,.25.24l.9,2.24a.47.47,0,0,1,0,.33.44.44,0,0,1-.27.26l-2.44,1a.4.4,0,0,1-.58-.26Zm1.53,4.24a.4.4,0,0,1,.24-.57l2.72-1.08a.55.55,0,0,1,.34,0,.37.37,0,0,1,.27.23l5.16,12.91c.11.27,0,.47-.29.59l-2.72,1.08a.39.39,0,0,1-.57-.24Z" transform="translate(-14.55 -16.1)" fill="#eee1ba"/><path d="M155,206a.66.66,0,0,1-.06-.34.45.45,0,0,1,.21-.29l2.86-1.92a.46.46,0,0,1,.61.05l7.28,6-2.77-9a.51.51,0,0,1,.21-.6l2.82-1.9a.57.57,0,0,1,.34-.08.5.5,0,0,1,.31.17l4.47,5.38,4.47,5.37,0,0c.15.22.1.41-.14.57L173.24,211a.41.41,0,0,1-.64-.1l-5-5.9,2.46,7.67a.62.62,0,0,1,0,.28.35.35,0,0,1-.12.25l-2.18,1.46a.32.32,0,0,1-.28,0,.4.4,0,0,1-.26-.12l-6.16-5.16,3.56,6.85a.43.43,0,0,1-.16.64l-2.34,1.57a.39.39,0,0,1-.6-.13Z" transform="translate(-14.55 -16.1)" fill="#eee1ba"/><path d="M67.82,52.45a.38.38,0,0,1-.08-.3.41.41,0,0,1,.18-.27L75.56,46a.51.51,0,0,1,.29-.1.43.43,0,0,1,.29.15l1.35,1.76a.49.49,0,0,1,.1.32.38.38,0,0,1-.16.31L75,50.33l6,7.78a.43.43,0,0,1,.09.3.4.4,0,0,1-.17.29l-2.08,1.6a.42.42,0,0,1-.3.07.36.36,0,0,1-.29-.15l-6-7.78-2.44,1.88a.45.45,0,0,1-.31.09.47.47,0,0,1-.3-.2Z" transform="translate(-14.55 -16.1)" fill="#eee1ba"/><path d="M79.43,44.07a.47.47,0,0,1-.05-.32.39.39,0,0,1,.21-.23l7.87-4.13a.41.41,0,0,1,.32,0,.45.45,0,0,1,.24.23l1,2a.46.46,0,0,1,0,.31.36.36,0,0,1-.21.26l-5.14,2.7,1,2,4-2.08a.4.4,0,0,1,.29-.06.31.31,0,0,1,.23.18l.89,1.72a.35.35,0,0,1,0,.25A.36.36,0,0,1,90,47l-4,2.09,1.06,2,5.33-2.8a.36.36,0,0,1,.55.18l1,2a.2.2,0,0,1,0,.17c0,.16,0,.29-.21.4l-8,4.2a.37.37,0,0,1-.3.05.37.37,0,0,1-.23-.2Z" transform="translate(-14.55 -16.1)" fill="#eee1ba"/><path d="M92.59,37.56a.47.47,0,0,1,0-.31.4.4,0,0,1,.25-.2l3-.9a.43.43,0,0,1,.51.2l4.69,7.08v-8.5a.45.45,0,0,1,.34-.46l2.93-.89a.43.43,0,0,1,.31,0,.4.4,0,0,1,.22.22c.81,2,1.62,3.89,2.43,5.8s1.62,3.85,2.43,5.8l0,0a.33.33,0,0,1-.28.45l-2.42.74a.38.38,0,0,1-.53-.25L103.73,40l.1,7.25a.59.59,0,0,1-.06.25.31.31,0,0,1-.18.18l-2.25.68a.3.3,0,0,1-.25,0,.41.41,0,0,1-.19-.18l-4-6.06,1.26,6.83a.38.38,0,0,1-.3.51l-2.43.73A.34.34,0,0,1,95,49.9Z" transform="translate(-14.55 -16.1)" fill="#eee1ba"/><path d="M114,32.37a.21.21,0,0,1,0-.12.41.41,0,0,1,.1-.13.65.65,0,0,1,.15-.1.48.48,0,0,1,.14-.05l2.28-.25a.37.37,0,0,1,.27.07,1,1,0,0,1,.18.14l.28.49,6,11.54a.26.26,0,0,1,0,.29.47.47,0,0,1-.33.15l-2.55.28a.65.65,0,0,1-.33,0,.55.55,0,0,1-.2-.24l-.44-.86c-.15-.29-.3-.58-.44-.87l-4.73.52-.24.94c-.09.31-.17.63-.25.94a.45.45,0,0,1-.41.38l-2.63.29a.46.46,0,0,1-.29-.06c-.08,0-.1-.14-.07-.26ZM116,36q-.12.48-.24,1c-.07.36-.15.73-.22,1.1s-.15.73-.23,1.09-.16.7-.24,1l2.74-.3Z" transform="translate(-14.55 -16.1)" fill="#eee1ba"/><path d="M126.08,40.24l.37.35A4.76,4.76,0,0,0,127,41a4.5,4.5,0,0,0,.89.51,2.62,2.62,0,0,0,.93.2,2.56,2.56,0,0,0,.77-.07,1.31,1.31,0,0,0,.5-.26.94.94,0,0,0,.27-.38,1.78,1.78,0,0,0,.09-.47.68.68,0,0,0-.19-.5,2,2,0,0,0-.5-.41,4.65,4.65,0,0,0-.63-.32l-.56-.22a12.85,12.85,0,0,1-1.85-.88,6.11,6.11,0,0,1-1.31-1,3.68,3.68,0,0,1-.76-1.2,4,4,0,0,1-.22-1.44,3.48,3.48,0,0,1,.4-1.5,3.36,3.36,0,0,1,1-1.13,4.73,4.73,0,0,1,1.52-.69,6.84,6.84,0,0,1,2-.19,6.6,6.6,0,0,1,1.56.24,6.36,6.36,0,0,1,1.45.64c.2.13.38.26.56.4s.33.26.47.38a3,3,0,0,1,.31.36.48.48,0,0,1,.11.28.37.37,0,0,1-.06.21,1.74,1.74,0,0,1-.19.22l-1.42,1.41a.5.5,0,0,1-.31.14.49.49,0,0,1-.23-.08l-.22-.19-.08-.07a4.29,4.29,0,0,0-.38-.33,2.85,2.85,0,0,0-.46-.31,3,3,0,0,0-.52-.23,1.8,1.8,0,0,0-.56-.11,2.56,2.56,0,0,0-.56,0,1.31,1.31,0,0,0-.46.14.8.8,0,0,0-.46.69.8.8,0,0,0,.11.44,1.25,1.25,0,0,0,.37.35,3.11,3.11,0,0,0,.61.32l.85.33c.62.23,1.2.47,1.72.72a5.88,5.88,0,0,1,1.36.87A3.28,3.28,0,0,1,134,40.67a3.82,3.82,0,0,1-.47,1.77,4.09,4.09,0,0,1-1.15,1.33,5.19,5.19,0,0,1-1.69.81,6.52,6.52,0,0,1-2.05.23,5.72,5.72,0,0,1-2-.44,7.47,7.47,0,0,1-1.81-1.06,4.55,4.55,0,0,1-.59-.53l-.37-.42,0,0,0,0v0l0,0h0a.67.67,0,0,1-.19-.37c0-.1.08-.21.22-.33l1.6-1.42a.49.49,0,0,1,.31-.12.32.32,0,0,1,.17.06A1.17,1.17,0,0,1,126.08,40.24Z" transform="translate(-14.55 -16.1)" fill="#eee1ba"/><path d="M138,41.15c.09.1.19.24.32.4a4.24,4.24,0,0,0,.46.51,4.58,4.58,0,0,0,.8.64,2.74,2.74,0,0,0,.89.34,2.63,2.63,0,0,0,.77,0,1.22,1.22,0,0,0,.53-.18,1,1,0,0,0,.33-.34,1.42,1.42,0,0,0,.16-.45.73.73,0,0,0-.11-.53,2.46,2.46,0,0,0-.44-.48,4.49,4.49,0,0,0-.57-.4l-.53-.3a12.7,12.7,0,0,1-1.69-1.15,5.6,5.6,0,0,1-1.15-1.2,3.67,3.67,0,0,1-.57-1.3,3.54,3.54,0,0,1,0-1.45,3.37,3.37,0,0,1,.61-1.42,3.23,3.23,0,0,1,1.16-1,4.6,4.6,0,0,1,1.61-.46,6.71,6.71,0,0,1,2,.11A6.18,6.18,0,0,1,144,33a5.9,5.9,0,0,1,1.34.85c.17.15.34.31.49.47s.29.31.41.45a1.84,1.84,0,0,1,.25.4.45.45,0,0,1,.07.29.34.34,0,0,1-.09.2l-.22.19-1.61,1.18a.44.44,0,0,1-.33.09.36.36,0,0,1-.21-.11,1.44,1.44,0,0,1-.19-.22l-.07-.08-.33-.38a3.69,3.69,0,0,0-.41-.38,3.94,3.94,0,0,0-.48-.31,1.72,1.72,0,0,0-.54-.18,2.72,2.72,0,0,0-.55-.06,1.73,1.73,0,0,0-.48.07.88.88,0,0,0-.36.22.8.8,0,0,0-.2.4.76.76,0,0,0,.05.45,1.31,1.31,0,0,0,.3.4,3.39,3.39,0,0,0,.56.41c.23.13.49.29.79.45.59.32,1.12.65,1.6,1A5.78,5.78,0,0,1,145,39.86a3.5,3.5,0,0,1,.69,1.27,3.64,3.64,0,0,1,0,1.62,4,4,0,0,1-2.07,2.82,5.14,5.14,0,0,1-1.79.55,6.54,6.54,0,0,1-2.06-.07,5.79,5.79,0,0,1-1.92-.74A7.68,7.68,0,0,1,136.25,44a5,5,0,0,1-.5-.62l-.31-.47,0,0a0,0,0,0,0,0,0l0,0s0,0,0,0h0a.63.63,0,0,1-.13-.39.54.54,0,0,1,.26-.3l1.8-1.17a.56.56,0,0,1,.32-.07.35.35,0,0,1,.16.08A2,2,0,0,1,138,41.15Z" transform="translate(-14.55 -16.1)" fill="#eee1ba"/><path d="M150.55,35.19a.4.4,0,0,1,.18-.24.36.36,0,0,1,.31,0l2.51.8a.47.47,0,0,1,.24.19.32.32,0,0,1,.06.32L150,48.16q-.12.38-.54.24L147,47.6a.35.35,0,0,1-.26-.5Z" transform="translate(-14.55 -16.1)" fill="#eee1ba"/><path d="M157.5,37.41a.37.37,0,0,1,.23-.21.42.42,0,0,1,.32,0l9.35,4.55a.45.45,0,0,1,.22.21.36.36,0,0,1,0,.32L166.81,44l-.06.12a.67.67,0,0,1-.12.12l-9.21,4.12L163,51a.45.45,0,0,1,.22.21.4.4,0,0,1,0,.33l-1,2a.49.49,0,0,1-.23.22.36.36,0,0,1-.32,0l-9.35-4.55A.41.41,0,0,1,152,49a.44.44,0,0,1,0-.35l.84-1.73a.41.41,0,0,1,.16-.18l9.15-4L156.71,40a.45.45,0,0,1-.24-.23.46.46,0,0,1,.05-.35Z" transform="translate(-14.55 -16.1)" fill="#eee1ba"/><path d="M158.15,85.11Q151,94.37,145.62,102.8a50.4,50.4,0,0,0-3.88-10.52c3.39-17.6,16.39-24.67,26-31.86-.47,10.49,6.65,28.89-8.21,42.05a37.39,37.39,0,0,0-13.32,4.41q0-.45-.09-.9Q153.32,90.82,158.15,85.11Z" transform="translate(-14.55 -16.1)" fill="#eee1ba" fill-rule="evenodd"/><path d="M138.72,124.17c13.11-17.25-.23-31.36-6.77-46.69a40.82,40.82,0,0,0-7.84,16.34c3.3,9.79,8.89,20.13,9.14,30.57A59.87,59.87,0,0,0,131.74,96a61.31,61.31,0,0,1,3.85,29.08C136.62,124.74,137.66,124.43,138.72,124.17Z" transform="translate(-14.55 -16.1)" fill="#eee1ba" fill-rule="evenodd"/><path d="M136.5,124.79c5.6-22.79,24.93-19.32,41.17-22.65q-3.88,13.6-13.38,20.61c-2.18.09-4.35.09-6.52.09-4.14,0-8.53-.09-12.85.32A56.54,56.54,0,0,1,163.17,113a57.31,57.31,0,0,0-22,10.69A35.16,35.16,0,0,0,136.5,124.79Z" transform="translate(-14.55 -16.1)" fill="#eee1ba" fill-rule="evenodd"/><path d="M123,143.82c16.56-17,3.78-33.91-1.49-51.3a44.42,44.42,0,0,0-9.33,14.09l.39,2.66c1.59,10.82,6.28,22.81,4.91,33.93a64.65,64.65,0,0,0,1.69-30.86,66.6,66.6,0,0,1,.76,31.87C121,144,122,143.9,123,143.82Z" transform="translate(-14.55 -16.1)" fill="#eee1ba" fill-rule="evenodd"/><path d="M120.88,144.06c8.49-24,28.79-17.82,46.54-19.34Q161,140.5,148.09,146.51c-2.09-.25-4.17-.59-6.24-.93-4.1-.68-8.44-1.48-12.78-1.76a59.37,59.37,0,0,1,21.67-9.34,60.32,60.32,0,0,0-25.55,9.24A34.31,34.31,0,0,0,120.88,144.06Z" transform="translate(-14.55 -16.1)" fill="#eee1ba" fill-rule="evenodd"/><path d="M100.25,163.67c24.53-14.42,13.14-34.66,10.28-54q-24.11,18.65-12.62,52.23A64.43,64.43,0,0,0,105.37,129Q107.35,147.81,100.25,163.67Z" transform="translate(-14.55 -16.1)" fill="#eee1ba" fill-rule="evenodd"/><path d="M100.79,164.19c11.65-26.92,31.73-16.61,50.29-15.19q-15.69,26.82-48.42,17.5A56.83,56.83,0,0,1,133.24,156,57.93,57.93,0,0,0,100.79,164.19Z" transform="translate(-14.55 -16.1)" fill="#eee1ba" fill-rule="evenodd"/><path d="M97.73,169.41a2,2,0,0,0-.17-2.63,1.69,1.69,0,0,0-2.47.25q-5.9,7.33-11.27,13.3T73.54,190.89a2,2,0,0,0-.19,2.64,1.68,1.68,0,0,0,2.48.12q5-4.69,10.49-10.79T97.73,169.41Z" transform="translate(-14.55 -16.1)" fill="#eee1ba" fill-rule="evenodd"/></svg>